<svg width="264" height="280" viewBox="0 0 264 280" fill="none" xmlns="http://www.w3.org/2000/svg">
<g id="avataaar">
<g id="Body">
<path id="Body_2" fill-rule="evenodd" clip-rule="evenodd" d="M132 36C101.072 36 76 61.0721 76 92V98.1659C70.3246 99.1181 66 104.054 66 110V124C66 130.052 70.4803 135.058 76.3051 135.881C78.3722 155.687 90.7626 172.422 108 180.611V199H104C64.2355 199 32 231.236 32 271V280H232V271C232 231.236 199.764 199 160 199H156V180.611C173.237 172.422 185.628 155.687 187.695 135.881C193.52 135.058 198 130.052 198 124V110C198 104.054 193.675 99.1181 188 98.1659V92C188 61.0721 162.928 36 132 36Z" fill="#D0C6AC"/>
<mask id="mask0" mask-type="alpha" maskUnits="userSpaceOnUse" x="32" y="36" width="200" height="244">
<path id="Body_3" fill-rule="evenodd" clip-rule="evenodd" d="M132 36C101.072 36 76 61.0721 76 92V98.1659C70.3246 99.1181 66 104.054 66 110V124C66 130.052 70.4803 135.058 76.3051 135.881C78.3722 155.687 90.7626 172.422 108 180.611V199H104C64.2355 199 32 231.236 32 271V280H232V271C232 231.236 199.764 199 160 199H156V180.611C173.237 172.422 185.628 155.687 187.695 135.881C193.52 135.058 198 130.052 198 124V110C198 104.054 193.675 99.1181 188 98.1659V92C188 61.0721 162.928 36 132 36Z" fill="white"/>
</mask>
<g mask="url(#mask0)">
<g id="&#240;&#159;&#142;&#168; Skin">
<rect id="Color" y="36" width="264" height="244" fill="#FFAD74"/>
</g>
<path id="Neck Shadow" fill-rule="evenodd" clip-rule="evenodd" d="M76 130V138C76 168.928 101.072 194 132 194C162.928 194 188 168.928 188 138V130C188 160.928 162.928 186 132 186C101.072 186 76 160.928 76 130Z" fill="black" fill-opacity="0.1"/>
</g>
</g>
<g id="Clothing/Collar + Sweater">
<path id="Clothes" fill-rule="evenodd" clip-rule="evenodd" d="M132 227.052C146.912 227.052 159 215.859 159 202.052C159 201.036 158.935 200.035 158.808 199.052H160C199.764 199.052 232 231.287 232 271.052V280H32V271.052C32 231.287 64.2355 199.052 104 199.052L105.192 199.052C105.065 200.035 105 201.036 105 202.052C105 215.859 117.088 227.052 132 227.052Z" fill="#E6E6E6"/>
<g id="Object">
<mask id="mask1" mask-type="alpha" maskUnits="userSpaceOnUse" x="32" y="199" width="200" height="81">
<path id="Clothes_2" fill-rule="evenodd" clip-rule="evenodd" d="M132 227.052C146.912 227.052 159 215.859 159 202.052C159 201.036 158.935 200.035 158.808 199.052H160C199.764 199.052 232 231.287 232 271.052V280H32V271.052C32 231.287 64.2355 199.052 104 199.052L105.192 199.052C105.065 200.035 105 201.036 105 202.052C105 215.859 117.088 227.052 132 227.052Z" fill="white"/>
</mask>
<g mask="url(#mask1)">
<g id="Color/Palette/Heather">
<rect id="&#240;&#159;&#150;&#141;Color" y="170" width="264" height="110" fill="#2877AD"/>
</g>
</g>
</g>
<path id="Collar" fill-rule="evenodd" clip-rule="evenodd" d="M108 191.571C101.233 196.174 97 202.74 97 210.028C97 217.426 101.362 224.08 108.308 228.692L114.421 223.876L119 224.208L118 221.057L118.078 220.996C111.978 217.853 108 212.7 108 206.877V191.571ZM156 206.877C156 212.7 152.022 217.853 145.922 220.996L146 221.057L145 224.208L149.579 223.876L155.229 228.327C161.863 223.733 166 217.233 166 210.028C166 203.106 162.182 196.835 156 192.279V206.877Z" fill="#F2F2F2"/>
</g>
<g id="Face">
<g id="&#240;&#159;&#145;&#132; Mouth">
<path id="Mouth" fill-rule="evenodd" clip-rule="evenodd" d="M118 149C118 156.732 124.268 163 132 163V163C139.732 163 146 156.732 146 149" fill="black" fill-opacity="0.7"/>
</g>
<g id="&#240;&#159;&#145;&#131;&#240;&#159;&#143;&#189; Nose">
<path id="Nose" fill-rule="evenodd" clip-rule="evenodd" d="M120 130C120 134.418 125.373 138 132 138V138C138.627 138 144 134.418 144 130" fill="black" fill-opacity="0.16"/>
</g>
<g id="&#240;&#159;&#145;&#129; Eyes">
<circle id="Eye" cx="106" cy="112" r="6" fill="black" fill-opacity="0.6"/>
<circle id="Eye_2" cx="158" cy="112" r="6" fill="black" fill-opacity="0.6"/>
</g>
<g id="&#226;&#156;&#143;&#239;&#184;&#143; Eyebrow">
<g id="I Browse">
<path id="Eyebrow" d="M91.6302 99.1586C95.5452 93.6499 106.278 90.5608 115.523 92.8312C116.596 93.0946 117.679 92.4386 117.942 91.3659C118.206 90.2932 117.55 89.21 116.477 88.9466C105.74 86.31 93.3121 89.887 88.3698 96.8414C87.7299 97.7418 87.9411 98.9904 88.8414 99.6302C89.7418 100.27 90.9904 100.059 91.6302 99.1586Z" fill="black" fill-opacity="0.6"/>
<path id="Eyebrow_2" d="M172.37 99.1586C168.455 93.6499 157.722 90.5608 148.477 92.8312C147.405 93.0946 146.321 92.4386 146.058 91.3659C145.795 90.2932 146.451 89.21 147.523 88.9466C158.26 86.31 170.688 89.887 175.631 96.8414C176.27 97.7418 176.059 98.9904 175.159 99.6302C174.259 100.27 173.01 100.059 172.37 99.1586Z" fill="black" fill-opacity="0.6"/>
</g>
</g>
</g>
<g id="Top">
<mask id="mask2" mask-type="alpha" maskUnits="userSpaceOnUse" x="0" y="0" width="264" height="280">
<rect id="Mask" width="264" height="280" fill="white"/>
</mask>
<g mask="url(#mask2)">
<g id="Top/Short Hair/Short Waved">
<path id="Short Hair" fill-rule="evenodd" clip-rule="evenodd" d="M182.68 38.9488C188.086 33.9986 189.387 23.9615 186.318 17.4493C182.549 9.45385 174.901 8.45218 167.572 11.9687C160.664 15.2836 154.515 16.3879 146.95 14.7817C139.692 13.2407 132.806 10.5226 125.303 10.0762C112.978 9.34292 101.003 13.9146 92.6031 23.1293C91.0004 24.8872 89.7089 26.8972 88.4883 28.9344C87.5115 30.5644 86.4105 32.3134 85.995 34.1922C85.7974 35.0856 86.1653 37.2899 85.7204 38.0219C85.2391 38.8123 83.4245 39.5373 82.651 40.1239C81.0843 41.3125 79.7268 42.654 78.4714 44.1711C75.8053 47.3927 74.3377 50.7577 73.1035 54.7428C69.0005 67.9878 68.6528 83.7413 73.9569 96.7468C74.6639 98.4811 76.8551 102.099 78.1432 98.3848C78.3977 97.6508 77.8087 95.1908 77.81 94.4502C77.8146 91.7301 79.3161 73.7214 85.8571 63.633C87.9862 60.3492 97.8299 48.0522 99.8405 47.9536C100.906 49.6464 111.721 60.4625 139.783 59.1949C152.445 58.623 162.183 52.9341 164.521 50.4681C165.549 56.0009 177.513 64.284 179.336 67.6922C184.603 77.5377 185.771 97.9957 187.781 97.9573C189.791 97.919 191.234 92.7198 191.648 91.7271C194.72 84.3517 195.243 75.0948 194.915 67.1684C194.488 56.9664 190.277 45.942 182.68 38.9488Z" fill="#28354B"/>
<g id="Object_2">
<mask id="mask3" mask-type="alpha" maskUnits="userSpaceOnUse" x="70" y="10" width="125" height="90">
<path id="Short Hair_2" fill-rule="evenodd" clip-rule="evenodd" d="M182.68 38.9488C188.086 33.9986 189.387 23.9615 186.318 17.4493C182.549 9.45385 174.901 8.45218 167.572 11.9687C160.664 15.2836 154.515 16.3879 146.95 14.7817C139.692 13.2407 132.806 10.5226 125.303 10.0762C112.978 9.34292 101.003 13.9146 92.6031 23.1293C91.0004 24.8872 89.7089 26.8972 88.4883 28.9344C87.5115 30.5644 86.4105 32.3134 85.995 34.1922C85.7974 35.0856 86.1653 37.2899 85.7204 38.0219C85.2391 38.8123 83.4245 39.5373 82.651 40.1239C81.0843 41.3125 79.7268 42.654 78.4714 44.1711C75.8053 47.3927 74.3377 50.7577 73.1035 54.7428C69.0005 67.9878 68.6528 83.7413 73.9569 96.7468C74.6639 98.4811 76.8551 102.099 78.1432 98.3848C78.3977 97.6508 77.8087 95.1908 77.81 94.4502C77.8146 91.7301 79.3161 73.7214 85.8571 63.633C87.9862 60.3492 97.8299 48.0522 99.8405 47.9536C100.906 49.6464 111.721 60.4625 139.783 59.1949C152.445 58.623 162.183 52.9341 164.521 50.4681C165.549 56.0009 177.513 64.284 179.336 67.6922C184.603 77.5377 185.771 97.9957 187.781 97.9573C189.791 97.919 191.234 92.7198 191.648 91.7271C194.72 84.3517 195.243 75.0948 194.915 67.1684C194.488 56.9664 190.277 45.942 182.68 38.9488Z" fill="white"/>
</mask>
<g mask="url(#mask3)">
<g id="&#226;&#134;&#179; &#240;&#159;&#146;&#136;Hair Color">
<rect id="Color_2" width="264" height="280" fill="#724133"/>
</g>
</g>
</g>
</g>
</g>
</g>
</g>
</svg>
